<svg id="visual" viewBox="0 0 900 300" width="900" height="300" xmlns="http://www.w3.org/2000/svg" xmlns:xlink="http://www.w3.org/1999/xlink" version="1.1"><rect x="0" y="0" width="900" height="300" fill="#001220"></rect><path d="M0 246L16.7 244.8C33.3 243.7 66.7 241.3 100 229.7C133.3 218 166.7 197 200 195.5C233.3 194 266.7 212 300 219.2C333.3 226.3 366.7 222.7 400 212.2C433.3 201.7 466.7 184.3 500 178.2C533.3 172 566.7 177 600 187.8C633.3 198.7 666.7 215.3 700 218.7C733.3 222 766.7 212 800 201.3C833.3 190.7 866.7 179.3 883.3 173.7L900 168L900 0L883.3 0C866.7 0 833.3 0 800 0C766.7 0 733.3 0 700 0C666.7 0 633.3 0 600 0C566.7 0 533.3 0 500 0C466.7 0 433.3 0 400 0C366.7 0 333.3 0 300 0C266.7 0 233.3 0 200 0C166.7 0 133.3 0 100 0C66.7 0 33.3 0 16.7 0L0 0Z" fill="#715df2"></path><path d="M0 142L16.7 144.2C33.3 146.3 66.7 150.7 100 156C133.3 161.3 166.7 167.7 200 178.5C233.3 189.3 266.7 204.7 300 206.7C333.3 208.7 366.7 197.3 400 186C433.3 174.7 466.7 163.3 500 158.3C533.3 153.3 566.7 154.7 600 158.5C633.3 162.3 666.7 168.7 700 174C733.3 179.3 766.7 183.7 800 183.8C833.3 184 866.7 180 883.3 178L900 176L900 0L883.3 0C866.7 0 833.3 0 800 0C766.7 0 733.3 0 700 0C666.7 0 633.3 0 600 0C566.7 0 533.3 0 500 0C466.7 0 433.3 0 400 0C366.7 0 333.3 0 300 0C266.7 0 233.3 0 200 0C166.7 0 133.3 0 100 0C66.7 0 33.3 0 16.7 0L0 0Z" fill="#6e55e6"></path><path d="M0 122L16.7 124C33.3 126 66.7 130 100 130.3C133.3 130.7 166.7 127.3 200 125.7C233.3 124 266.7 124 300 135.5C333.3 147 366.7 170 400 175.8C433.3 181.7 466.7 170.3 500 165.7C533.3 161 566.7 163 600 158.7C633.3 154.3 666.7 143.7 700 137.7C733.3 131.7 766.7 130.3 800 133.2C833.3 136 866.7 143 883.3 146.5L900 150L900 0L883.3 0C866.7 0 833.3 0 800 0C766.7 0 733.3 0 700 0C666.7 0 633.3 0 600 0C566.7 0 533.3 0 500 0C466.7 0 433.3 0 400 0C366.7 0 333.3 0 300 0C266.7 0 233.3 0 200 0C166.7 0 133.3 0 100 0C66.7 0 33.3 0 16.7 0L0 0Z" fill="#6a4cda"></path><path d="M0 157L16.7 156.3C33.3 155.7 66.7 154.3 100 151C133.3 147.7 166.7 142.3 200 140.3C233.3 138.3 266.7 139.7 300 134C333.3 128.3 366.7 115.7 400 117C433.3 118.3 466.7 133.7 500 140.5C533.3 147.3 566.7 145.7 600 137.2C633.3 128.7 666.7 113.3 700 114.7C733.3 116 766.7 134 800 137.5C833.3 141 866.7 130 883.3 124.5L900 119L900 0L883.3 0C866.7 0 833.3 0 800 0C766.7 0 733.3 0 700 0C666.7 0 633.3 0 600 0C566.7 0 533.3 0 500 0C466.7 0 433.3 0 400 0C366.7 0 333.3 0 300 0C266.7 0 233.3 0 200 0C166.7 0 133.3 0 100 0C66.7 0 33.3 0 16.7 0L0 0Z" fill="#6644ce"></path><path d="M0 107L16.7 101.8C33.3 96.7 66.7 86.3 100 88.3C133.3 90.3 166.7 104.7 200 108.3C233.3 112 266.7 105 300 99.3C333.3 93.7 366.7 89.3 400 90.2C433.3 91 466.7 97 500 95.7C533.3 94.3 566.7 85.7 600 83.5C633.3 81.3 666.7 85.7 700 91C733.3 96.3 766.7 102.7 800 101.5C833.3 100.3 866.7 91.7 883.3 87.3L900 83L900 0L883.3 0C866.7 0 833.3 0 800 0C766.7 0 733.3 0 700 0C666.7 0 633.3 0 600 0C566.7 0 533.3 0 500 0C466.7 0 433.3 0 400 0C366.7 0 333.3 0 300 0C266.7 0 233.3 0 200 0C166.7 0 133.3 0 100 0C66.7 0 33.3 0 16.7 0L0 0Z" fill="#623cc2"></path><path d="M0 61L16.7 59.7C33.3 58.3 66.7 55.7 100 58.3C133.3 61 166.7 69 200 77.3C233.3 85.7 266.7 94.3 300 97.3C333.3 100.3 366.7 97.7 400 91.7C433.3 85.7 466.7 76.3 500 74.2C533.3 72 566.7 77 600 75.8C633.3 74.7 666.7 67.3 700 70C733.3 72.7 766.7 85.3 800 90.3C833.3 95.3 866.7 92.7 883.3 91.3L900 90L900 0L883.3 0C866.7 0 833.3 0 800 0C766.7 0 733.3 0 700 0C666.7 0 633.3 0 600 0C566.7 0 533.3 0 500 0C466.7 0 433.3 0 400 0C366.7 0 333.3 0 300 0C266.7 0 233.3 0 200 0C166.7 0 133.3 0 100 0C66.7 0 33.3 0 16.7 0L0 0Z" fill="#5d33b7"></path><path d="M0 33L16.7 34.2C33.3 35.3 66.7 37.7 100 44.2C133.3 50.7 166.7 61.3 200 63.8C233.3 66.3 266.7 60.7 300 58.2C333.3 55.7 366.7 56.3 400 58.8C433.3 61.3 466.7 65.7 500 66.5C533.3 67.3 566.7 64.7 600 60.7C633.3 56.7 666.7 51.3 700 46.3C733.3 41.3 766.7 36.7 800 40.7C833.3 44.7 866.7 57.3 883.3 63.7L900 70L900 0L883.3 0C866.7 0 833.3 0 800 0C766.7 0 733.3 0 700 0C666.7 0 633.3 0 600 0C566.7 0 533.3 0 500 0C466.7 0 433.3 0 400 0C366.7 0 333.3 0 300 0C266.7 0 233.3 0 200 0C166.7 0 133.3 0 100 0C66.7 0 33.3 0 16.7 0L0 0Z" fill="#592bab"></path><path d="M0 11L16.7 13.5C33.3 16 66.7 21 100 23.8C133.3 26.7 166.7 27.3 200 26.2C233.3 25 266.7 22 300 25.3C333.3 28.7 366.7 38.3 400 43.2C433.3 48 466.7 48 500 48.3C533.3 48.7 566.7 49.3 600 43.2C633.3 37 666.7 24 700 20.7C733.3 17.3 766.7 23.7 800 30C833.3 36.3 866.7 42.7 883.3 45.8L900 49L900 0L883.3 0C866.7 0 833.3 0 800 0C766.7 0 733.3 0 700 0C666.7 0 633.3 0 600 0C566.7 0 533.3 0 500 0C466.7 0 433.3 0 400 0C366.7 0 333.3 0 300 0C266.7 0 233.3 0 200 0C166.7 0 133.3 0 100 0C66.7 0 33.3 0 16.7 0L0 0Z" fill="#5422a0"></path></svg>