<svg id="visual" viewBox="0 0 900 300" width="900" height="300" xmlns="http://www.w3.org/2000/svg" xmlns:xlink="http://www.w3.org/1999/xlink" version="1.1"><rect x="0" y="0" width="900" height="300" fill="#001220"></rect><path d="M0 214L10.7 216.2C21.3 218.3 42.7 222.7 64.2 221.2C85.7 219.7 107.3 212.3 128.8 208.3C150.3 204.3 171.7 203.7 193 204.7C214.3 205.7 235.7 208.3 257 212.3C278.3 216.3 299.7 221.7 321.2 223.7C342.7 225.7 364.3 224.3 385.8 218C407.3 211.7 428.7 200.3 450 193.2C471.3 186 492.7 183 514.2 181.8C535.7 180.7 557.3 181.3 578.8 184.7C600.3 188 621.7 194 643 199.7C664.3 205.3 685.7 210.7 707 210.3C728.3 210 749.7 204 771.2 201.7C792.7 199.3 814.3 200.7 835.8 199.2C857.3 197.7 878.7 193.3 889.3 191.2L900 189L900 301L889.3 301C878.7 301 857.3 301 835.8 301C814.3 301 792.7 301 771.2 301C749.7 301 728.3 301 707 301C685.7 301 664.3 301 643 301C621.7 301 600.3 301 578.8 301C557.3 301 535.7 301 514.2 301C492.7 301 471.3 301 450 301C428.7 301 407.3 301 385.8 301C364.3 301 342.7 301 321.2 301C299.7 301 278.3 301 257 301C235.7 301 214.3 301 193 301C171.7 301 150.3 301 128.8 301C107.3 301 85.7 301 64.2 301C42.7 301 21.3 301 10.7 301L0 301Z" fill="#715df2"></path><path d="M0 225L10.7 224.3C21.3 223.7 42.7 222.3 64.2 219.8C85.7 217.3 107.3 213.7 128.8 211.3C150.3 209 171.7 208 193 209.2C214.3 210.3 235.7 213.7 257 218.3C278.3 223 299.7 229 321.2 231.5C342.7 234 364.3 233 385.8 230.7C407.3 228.3 428.7 224.7 450 225.8C471.3 227 492.7 233 514.2 230.3C535.7 227.7 557.3 216.3 578.8 216.7C600.3 217 621.7 229 643 235.8C664.3 242.7 685.7 244.3 707 240.8C728.3 237.3 749.7 228.7 771.2 227.8C792.7 227 814.3 234 835.8 238.3C857.3 242.7 878.7 244.3 889.3 245.2L900 246L900 301L889.3 301C878.7 301 857.3 301 835.8 301C814.3 301 792.7 301 771.2 301C749.7 301 728.3 301 707 301C685.7 301 664.3 301 643 301C621.7 301 600.3 301 578.8 301C557.3 301 535.7 301 514.2 301C492.7 301 471.3 301 450 301C428.7 301 407.3 301 385.8 301C364.3 301 342.7 301 321.2 301C299.7 301 278.3 301 257 301C235.7 301 214.3 301 193 301C171.7 301 150.3 301 128.8 301C107.3 301 85.7 301 64.2 301C42.7 301 21.3 301 10.7 301L0 301Z" fill="#694ad6"></path><path d="M0 253L10.7 251C21.3 249 42.7 245 64.2 242.5C85.7 240 107.3 239 128.8 242C150.3 245 171.7 252 193 251.2C214.3 250.3 235.7 241.7 257 236.8C278.3 232 299.7 231 321.2 231.8C342.7 232.7 364.3 235.3 385.8 239.5C407.3 243.7 428.7 249.3 450 253C471.3 256.7 492.7 258.3 514.2 257.8C535.7 257.3 557.3 254.7 578.8 253.5C600.3 252.3 621.7 252.7 643 251.2C664.3 249.7 685.7 246.3 707 244C728.3 241.7 749.7 240.3 771.2 241.5C792.7 242.7 814.3 246.3 835.8 249.2C857.3 252 878.7 254 889.3 255L900 256L900 301L889.3 301C878.7 301 857.3 301 835.8 301C814.3 301 792.7 301 771.2 301C749.7 301 728.3 301 707 301C685.7 301 664.3 301 643 301C621.7 301 600.3 301 578.8 301C557.3 301 535.7 301 514.2 301C492.7 301 471.3 301 450 301C428.7 301 407.3 301 385.8 301C364.3 301 342.7 301 321.2 301C299.7 301 278.3 301 257 301C235.7 301 214.3 301 193 301C171.7 301 150.3 301 128.8 301C107.3 301 85.7 301 64.2 301C42.7 301 21.3 301 10.7 301L0 301Z" fill="#5f36ba"></path><path d="M0 281L10.7 280.5C21.3 280 42.7 279 64.2 279.3C85.7 279.7 107.3 281.3 128.8 280.8C150.3 280.3 171.7 277.7 193 273.7C214.3 269.7 235.7 264.3 257 265C278.3 265.7 299.7 272.3 321.2 273.8C342.7 275.3 364.3 271.7 385.8 269.5C407.3 267.3 428.7 266.7 450 265C471.3 263.3 492.7 260.7 514.2 262.2C535.7 263.7 557.3 269.3 578.8 271.7C600.3 274 621.7 273 643 270.2C664.3 267.3 685.7 262.7 707 261.8C728.3 261 749.7 264 771.2 265.3C792.7 266.7 814.3 266.3 835.8 267.5C857.3 268.7 878.7 271.3 889.3 272.7L900 274L900 301L889.3 301C878.7 301 857.3 301 835.8 301C814.3 301 792.7 301 771.2 301C749.7 301 728.3 301 707 301C685.7 301 664.3 301 643 301C621.7 301 600.3 301 578.8 301C557.3 301 535.7 301 514.2 301C492.7 301 471.3 301 450 301C428.7 301 407.3 301 385.8 301C364.3 301 342.7 301 321.2 301C299.7 301 278.3 301 257 301C235.7 301 214.3 301 193 301C171.7 301 150.3 301 128.8 301C107.3 301 85.7 301 64.2 301C42.7 301 21.3 301 10.7 301L0 301Z" fill="#5422a0"></path></svg>