<svg id="visual" viewBox="0 0 900 300" width="900" height="300" xmlns="http://www.w3.org/2000/svg" xmlns:xlink="http://www.w3.org/1999/xlink" version="1.1"><rect x="0" y="0" width="900" height="300" fill="#001220"></rect><path d="M0 134L8.8 124.2C17.7 114.3 35.3 94.7 53 92.3C70.7 90 88.3 105 106 117.2C123.7 129.3 141.3 138.7 159 130.8C176.7 123 194.3 98 212 90.8C229.7 83.7 247.3 94.3 265 100.8C282.7 107.3 300.3 109.7 318 110.7C335.7 111.7 353.3 111.3 371 116.7C388.7 122 406.3 133 423.8 136C441.3 139 458.7 134 476.2 132C493.7 130 511.3 131 529 129.2C546.7 127.3 564.3 122.7 582 122.7C599.7 122.7 617.3 127.3 635 128C652.7 128.7 670.3 125.3 688 126.2C705.7 127 723.3 132 741 127.5C758.7 123 776.3 109 794 108C811.7 107 829.3 119 847 124C864.7 129 882.3 127 891.2 126L900 125L900 0L891.2 0C882.3 0 864.7 0 847 0C829.3 0 811.7 0 794 0C776.3 0 758.7 0 741 0C723.3 0 705.7 0 688 0C670.3 0 652.7 0 635 0C617.3 0 599.7 0 582 0C564.3 0 546.7 0 529 0C511.3 0 493.7 0 476.2 0C458.7 0 441.3 0 423.8 0C406.3 0 388.7 0 371 0C353.3 0 335.7 0 318 0C300.3 0 282.7 0 265 0C247.3 0 229.7 0 212 0C194.3 0 176.7 0 159 0C141.3 0 123.7 0 106 0C88.3 0 70.7 0 53 0C35.3 0 17.7 0 8.8 0L0 0Z" fill="#715df2"></path><path d="M0 52L8.8 62C17.7 72 35.3 92 53 95.5C70.7 99 88.3 86 106 85.5C123.7 85 141.3 97 159 99.5C176.7 102 194.3 95 212 90.8C229.7 86.7 247.3 85.3 265 80.2C282.7 75 300.3 66 318 69.2C335.7 72.3 353.3 87.7 371 91.7C388.7 95.7 406.3 88.3 423.8 89.3C441.3 90.3 458.7 99.7 476.2 95.3C493.7 91 511.3 73 529 64.7C546.7 56.3 564.3 57.7 582 68.2C599.7 78.7 617.3 98.3 635 107.3C652.7 116.3 670.3 114.7 688 104C705.7 93.3 723.3 73.7 741 67.3C758.7 61 776.3 68 794 75.5C811.7 83 829.3 91 847 88C864.7 85 882.3 71 891.2 64L900 57L900 0L891.2 0C882.3 0 864.7 0 847 0C829.3 0 811.7 0 794 0C776.3 0 758.7 0 741 0C723.3 0 705.7 0 688 0C670.3 0 652.7 0 635 0C617.3 0 599.7 0 582 0C564.3 0 546.7 0 529 0C511.3 0 493.7 0 476.2 0C458.7 0 441.3 0 423.8 0C406.3 0 388.7 0 371 0C353.3 0 335.7 0 318 0C300.3 0 282.7 0 265 0C247.3 0 229.7 0 212 0C194.3 0 176.7 0 159 0C141.3 0 123.7 0 106 0C88.3 0 70.7 0 53 0C35.3 0 17.7 0 8.8 0L0 0Z" fill="#694ad6"></path><path d="M0 38L8.8 45.2C17.7 52.3 35.3 66.7 53 67.7C70.7 68.7 88.3 56.3 106 50.5C123.7 44.7 141.3 45.3 159 48.7C176.7 52 194.3 58 212 59.2C229.7 60.3 247.3 56.7 265 56C282.7 55.3 300.3 57.7 318 54C335.7 50.3 353.3 40.7 371 40C388.7 39.3 406.3 47.7 423.8 49.2C441.3 50.7 458.7 45.3 476.2 48.7C493.7 52 511.3 64 529 61.8C546.7 59.7 564.3 43.3 582 35.2C599.7 27 617.3 27 635 31.8C652.7 36.7 670.3 46.3 688 54.5C705.7 62.7 723.3 69.3 741 65.7C758.7 62 776.3 48 794 44C811.7 40 829.3 46 847 51.5C864.7 57 882.3 62 891.2 64.5L900 67L900 0L891.2 0C882.3 0 864.7 0 847 0C829.3 0 811.7 0 794 0C776.3 0 758.7 0 741 0C723.3 0 705.7 0 688 0C670.3 0 652.7 0 635 0C617.3 0 599.7 0 582 0C564.3 0 546.7 0 529 0C511.3 0 493.7 0 476.2 0C458.7 0 441.3 0 423.8 0C406.3 0 388.7 0 371 0C353.3 0 335.7 0 318 0C300.3 0 282.7 0 265 0C247.3 0 229.7 0 212 0C194.3 0 176.7 0 159 0C141.3 0 123.7 0 106 0C88.3 0 70.7 0 53 0C35.3 0 17.7 0 8.8 0L0 0Z" fill="#5f36ba"></path><path d="M0 44L8.8 45.3C17.7 46.7 35.3 49.3 53 44.2C70.7 39 88.3 26 106 25.3C123.7 24.7 141.3 36.3 159 37.8C176.7 39.3 194.3 30.7 212 31.8C229.7 33 247.3 44 265 49.7C282.7 55.3 300.3 55.7 318 55.8C335.7 56 353.3 56 371 51.3C388.7 46.7 406.3 37.3 423.8 35C441.3 32.7 458.7 37.3 476.2 36.8C493.7 36.3 511.3 30.7 529 23.8C546.7 17 564.3 9 582 11.5C599.7 14 617.3 27 635 32C652.7 37 670.3 34 688 30.2C705.7 26.3 723.3 21.7 741 22.2C758.7 22.7 776.3 28.3 794 30.2C811.7 32 829.3 30 847 33.5C864.7 37 882.3 46 891.2 50.5L900 55L900 0L891.2 0C882.3 0 864.7 0 847 0C829.3 0 811.7 0 794 0C776.3 0 758.7 0 741 0C723.3 0 705.7 0 688 0C670.3 0 652.7 0 635 0C617.3 0 599.7 0 582 0C564.3 0 546.7 0 529 0C511.3 0 493.7 0 476.2 0C458.7 0 441.3 0 423.8 0C406.3 0 388.7 0 371 0C353.3 0 335.7 0 318 0C300.3 0 282.7 0 265 0C247.3 0 229.7 0 212 0C194.3 0 176.7 0 159 0C141.3 0 123.7 0 106 0C88.3 0 70.7 0 53 0C35.3 0 17.7 0 8.8 0L0 0Z" fill="#5422a0"></path></svg>