<svg id="visual" viewBox="0 0 900 300" width="900" height="300" xmlns="http://www.w3.org/2000/svg" xmlns:xlink="http://www.w3.org/1999/xlink" version="1.1"><rect x="0" y="0" width="900" height="300" fill="#001220"></rect><path d="M0 107L10.7 113C21.3 119 42.7 131 64.2 141.2C85.7 151.3 107.3 159.7 128.8 155.7C150.3 151.7 171.7 135.3 193 135C214.3 134.7 235.7 150.3 257 153.3C278.3 156.3 299.7 146.7 321.2 141.5C342.7 136.3 364.3 135.7 385.8 132.5C407.3 129.3 428.7 123.7 450 120.3C471.3 117 492.7 116 514.2 123.2C535.7 130.3 557.3 145.7 578.8 147.3C600.3 149 621.7 137 643 128C664.3 119 685.7 113 707 111C728.3 109 749.7 111 771.2 118C792.7 125 814.3 137 835.8 136.3C857.3 135.7 878.7 122.3 889.3 115.7L900 109L900 301L889.3 301C878.7 301 857.3 301 835.8 301C814.3 301 792.7 301 771.2 301C749.7 301 728.3 301 707 301C685.7 301 664.3 301 643 301C621.7 301 600.3 301 578.8 301C557.3 301 535.7 301 514.2 301C492.7 301 471.3 301 450 301C428.7 301 407.3 301 385.8 301C364.3 301 342.7 301 321.2 301C299.7 301 278.3 301 257 301C235.7 301 214.3 301 193 301C171.7 301 150.3 301 128.8 301C107.3 301 85.7 301 64.2 301C42.7 301 21.3 301 10.7 301L0 301Z" fill="#715df2"></path><path d="M0 160L10.7 164.7C21.3 169.3 42.7 178.7 64.2 183.7C85.7 188.7 107.3 189.3 128.8 183C150.3 176.7 171.7 163.3 193 162.8C214.3 162.3 235.7 174.7 257 180.8C278.3 187 299.7 187 321.2 177.5C342.7 168 364.3 149 385.8 150C407.3 151 428.7 172 450 181.2C471.3 190.3 492.7 187.7 514.2 187.5C535.7 187.3 557.3 189.7 578.8 190.8C600.3 192 621.7 192 643 185.5C664.3 179 685.7 166 707 156.5C728.3 147 749.7 141 771.2 148.2C792.7 155.3 814.3 175.7 835.8 183.2C857.3 190.7 878.7 185.3 889.3 182.7L900 180L900 301L889.3 301C878.7 301 857.3 301 835.8 301C814.3 301 792.7 301 771.2 301C749.7 301 728.3 301 707 301C685.7 301 664.3 301 643 301C621.7 301 600.3 301 578.8 301C557.3 301 535.7 301 514.2 301C492.7 301 471.3 301 450 301C428.7 301 407.3 301 385.8 301C364.3 301 342.7 301 321.2 301C299.7 301 278.3 301 257 301C235.7 301 214.3 301 193 301C171.7 301 150.3 301 128.8 301C107.3 301 85.7 301 64.2 301C42.7 301 21.3 301 10.7 301L0 301Z" fill="#6c51e1"></path><path d="M0 209L10.7 210.3C21.3 211.7 42.7 214.3 64.2 210.8C85.7 207.3 107.3 197.7 128.8 192C150.3 186.3 171.7 184.7 193 183C214.3 181.3 235.7 179.7 257 180.5C278.3 181.3 299.7 184.7 321.2 190.3C342.7 196 364.3 204 385.8 200.7C407.3 197.3 428.7 182.7 450 180.8C471.3 179 492.7 190 514.2 194.5C535.7 199 557.3 197 578.8 199.2C600.3 201.3 621.7 207.7 643 205C664.3 202.3 685.7 190.7 707 187.5C728.3 184.3 749.7 189.7 771.2 186.2C792.7 182.7 814.3 170.3 835.8 170.5C857.3 170.7 878.7 183.3 889.3 189.7L900 196L900 301L889.3 301C878.7 301 857.3 301 835.8 301C814.3 301 792.7 301 771.2 301C749.7 301 728.3 301 707 301C685.7 301 664.3 301 643 301C621.7 301 600.3 301 578.8 301C557.3 301 535.7 301 514.2 301C492.7 301 471.3 301 450 301C428.7 301 407.3 301 385.8 301C364.3 301 342.7 301 321.2 301C299.7 301 278.3 301 257 301C235.7 301 214.3 301 193 301C171.7 301 150.3 301 128.8 301C107.3 301 85.7 301 64.2 301C42.7 301 21.3 301 10.7 301L0 301Z" fill="#6746d0"></path><path d="M0 188L10.7 188C21.3 188 42.7 188 64.2 192C85.7 196 107.3 204 128.8 211.2C150.3 218.3 171.7 224.7 193 222.5C214.3 220.3 235.7 209.7 257 210.8C278.3 212 299.7 225 321.2 228.7C342.7 232.3 364.3 226.7 385.8 223.5C407.3 220.3 428.7 219.7 450 219.7C471.3 219.7 492.7 220.3 514.2 223.7C535.7 227 557.3 233 578.8 231.8C600.3 230.7 621.7 222.3 643 217.2C664.3 212 685.7 210 707 207.2C728.3 204.3 749.7 200.7 771.2 201.3C792.7 202 814.3 207 835.8 210.2C857.3 213.3 878.7 214.7 889.3 215.3L900 216L900 301L889.3 301C878.7 301 857.3 301 835.8 301C814.3 301 792.7 301 771.2 301C749.7 301 728.3 301 707 301C685.7 301 664.3 301 643 301C621.7 301 600.3 301 578.8 301C557.3 301 535.7 301 514.2 301C492.7 301 471.3 301 450 301C428.7 301 407.3 301 385.8 301C364.3 301 342.7 301 321.2 301C299.7 301 278.3 301 257 301C235.7 301 214.3 301 193 301C171.7 301 150.3 301 128.8 301C107.3 301 85.7 301 64.2 301C42.7 301 21.3 301 10.7 301L0 301Z" fill="#613ac0"></path><path d="M0 224L10.7 223.7C21.3 223.3 42.7 222.7 64.2 225.3C85.7 228 107.3 234 128.8 236.3C150.3 238.7 171.7 237.3 193 238C214.3 238.7 235.7 241.3 257 245.3C278.3 249.3 299.7 254.7 321.2 257.2C342.7 259.7 364.3 259.3 385.8 257.3C407.3 255.3 428.7 251.7 450 250.7C471.3 249.7 492.7 251.3 514.2 249.3C535.7 247.3 557.3 241.7 578.8 242.7C600.3 243.7 621.7 251.3 643 251.2C664.3 251 685.7 243 707 239.5C728.3 236 749.7 237 771.2 239.5C792.7 242 814.3 246 835.8 244.3C857.3 242.7 878.7 235.3 889.3 231.7L900 228L900 301L889.3 301C878.7 301 857.3 301 835.8 301C814.3 301 792.7 301 771.2 301C749.7 301 728.3 301 707 301C685.7 301 664.3 301 643 301C621.7 301 600.3 301 578.8 301C557.3 301 535.7 301 514.2 301C492.7 301 471.3 301 450 301C428.7 301 407.3 301 385.8 301C364.3 301 342.7 301 321.2 301C299.7 301 278.3 301 257 301C235.7 301 214.3 301 193 301C171.7 301 150.3 301 128.8 301C107.3 301 85.7 301 64.2 301C42.7 301 21.3 301 10.7 301L0 301Z" fill="#5b2eb0"></path><path d="M0 269L10.7 267.8C21.3 266.7 42.7 264.3 64.2 266.3C85.7 268.3 107.3 274.7 128.8 276.7C150.3 278.7 171.7 276.3 193 273.3C214.3 270.3 235.7 266.7 257 262.3C278.3 258 299.7 253 321.2 255.8C342.7 258.7 364.3 269.3 385.8 269.5C407.3 269.7 428.7 259.3 450 255.7C471.3 252 492.7 255 514.2 255.7C535.7 256.3 557.3 254.7 578.8 256.2C600.3 257.7 621.7 262.3 643 262C664.3 261.7 685.7 256.3 707 257.2C728.3 258 749.7 265 771.2 267.8C792.7 270.7 814.3 269.3 835.8 265.8C857.3 262.3 878.7 256.7 889.3 253.8L900 251L900 301L889.3 301C878.7 301 857.3 301 835.8 301C814.3 301 792.7 301 771.2 301C749.7 301 728.3 301 707 301C685.7 301 664.3 301 643 301C621.7 301 600.3 301 578.8 301C557.3 301 535.7 301 514.2 301C492.7 301 471.3 301 450 301C428.7 301 407.3 301 385.8 301C364.3 301 342.7 301 321.2 301C299.7 301 278.3 301 257 301C235.7 301 214.3 301 193 301C171.7 301 150.3 301 128.8 301C107.3 301 85.7 301 64.2 301C42.7 301 21.3 301 10.7 301L0 301Z" fill="#5422a0"></path></svg>